<?xml version="1.0" standalone="no"?>
<!DOCTYPE svg PUBLIC "-//W3C//DTD SVG 20010904//EN"
 "http://www.w3.org/TR/2001/REC-SVG-20010904/DTD/svg10.dtd">
<svg version="1.0" xmlns="http://www.w3.org/2000/svg"
 width="260.000000pt" height="260.000000pt" viewBox="0 0 260.000000 260.000000"
 preserveAspectRatio="xMidYMid meet">
<metadata>
Created by potrace 1.11, written by Peter Selinger 2001-2013
</metadata>
<g transform="translate(0.000000,260.000000) scale(0.100000,-0.100000)"
fill="#000000" stroke="none">
<path d="M1167 2268 c-81 -140 -376 -756 -465 -973 -43 -104 -206 -583 -218
-640 -2 -11 -8 -31 -13 -45 -9 -24 -40 -130 -46 -160 -2 -8 -10 -44 -19 -79
-8 -36 -13 -67 -11 -70 4 -8 1101 -8 1108 -1 3 3 8 34 11 70 4 36 9 76 11 90
5 31 12 86 21 165 3 33 8 74 10 90 2 17 6 62 10 100 3 39 8 72 9 76 2 3 7 39
11 80 9 97 9 97 17 106 4 4 15 8 25 10 9 1 78 14 152 28 74 14 144 28 155 29
38 7 90 17 133 27 23 5 57 12 75 14 17 3 70 13 117 23 l84 17 42 79 43 80 -39
17 c-21 10 -53 24 -72 32 -18 8 -64 30 -103 47 -38 18 -128 58 -200 90 -71 32
-166 74 -209 94 -44 21 -101 46 -128 58 l-47 20 5 202 5 201 -25 -29 c-13 -16
-30 -41 -37 -55 -8 -14 -23 -42 -34 -61 -12 -19 -34 -64 -49 -100 -16 -36 -32
-69 -36 -73 -4 -4 -29 4 -57 18 -50 26 -143 36 -192 20 -19 -6 -20 -2 -16 117
8 268 8 318 3 323 -3 3 -17 -13 -31 -37z m332 -626 c19 -9 36 -22 39 -29 5
-17 -45 -46 -80 -46 -38 0 -79 42 -71 73 7 26 63 27 112 2z"/>
</g>
</svg>
