<?xml version="1.0" encoding="UTF-8" standalone="no"?>
<svg
   xmlns:dc="http://purl.org/dc/elements/1.1/"
   xmlns:cc="http://creativecommons.org/ns#"
   xmlns:rdf="http://www.w3.org/1999/02/22-rdf-syntax-ns#"
   xmlns:svg="http://www.w3.org/2000/svg"
   xmlns="http://www.w3.org/2000/svg"
   xmlns:sodipodi="http://sodipodi.sourceforge.net/DTD/sodipodi-0.dtd"
   xmlns:inkscape="http://www.inkscape.org/namespaces/inkscape"
   id="svg"
   version="1.1"
   width="2713.6516"
   height="265.87534"
   sodipodi:docname="dobie_header_2.svg"
   inkscape:version="0.92.4 5da689c313, 2019-01-14">
  <metadata
     id="metadata3843">
    <rdf:RDF>
      <cc:Work
         rdf:about="">
        <dc:format>image/svg+xml</dc:format>
        <dc:type
           rdf:resource="http://purl.org/dc/dcmitype/StillImage" />
        <dc:title></dc:title>
      </cc:Work>
    </rdf:RDF>
  </metadata>
  <defs
     id="defs3841">
    <filter
       style="color-interpolation-filters:sRGB"
       inkscape:label="Drop Shadow"
       id="filter4126">
      <feFlood
         flood-opacity="0.498039"
         flood-color="rgb(0,0,0)"
         result="flood"
         id="feFlood4116" />
      <feComposite
         in="flood"
         in2="SourceGraphic"
         operator="in"
         result="composite1"
         id="feComposite4118" />
      <feGaussianBlur
         in="composite1"
         stdDeviation="2"
         result="blur"
         id="feGaussianBlur4120" />
      <feOffset
         dx="4"
         dy="4"
         result="offset"
         id="feOffset4122" />
      <feComposite
         in="SourceGraphic"
         in2="offset"
         operator="over"
         result="composite2"
         id="feComposite4124" />
    </filter>
    <filter
       style="color-interpolation-filters:sRGB"
       inkscape:label="Drop Shadow"
       id="filter4013">
      <feFlood
         flood-opacity="0.498039"
         flood-color="rgb(0,0,0)"
         result="flood"
         id="feFlood4003" />
      <feComposite
         in="flood"
         in2="SourceGraphic"
         operator="in"
         result="composite1"
         id="feComposite4005" />
      <feGaussianBlur
         in="composite1"
         stdDeviation="0"
         result="blur"
         id="feGaussianBlur4007" />
      <feOffset
         dx="0"
         dy="0"
         result="offset"
         id="feOffset4009" />
      <feComposite
         in="SourceGraphic"
         in2="offset"
         operator="over"
         result="composite2"
         id="feComposite4011" />
    </filter>
    <filter
       style="color-interpolation-filters:sRGB"
       inkscape:label="Drop Shadow"
       id="filter4025">
      <feFlood
         flood-opacity="0.498039"
         flood-color="rgb(0,0,0)"
         result="flood"
         id="feFlood4015" />
      <feComposite
         in="flood"
         in2="SourceGraphic"
         operator="in"
         result="composite1"
         id="feComposite4017" />
      <feGaussianBlur
         in="composite1"
         stdDeviation="0"
         result="blur"
         id="feGaussianBlur4019" />
      <feOffset
         dx="0"
         dy="0"
         result="offset"
         id="feOffset4021" />
      <feComposite
         in="SourceGraphic"
         in2="offset"
         operator="over"
         result="composite2"
         id="feComposite4023" />
    </filter>
    <filter
       style="color-interpolation-filters:sRGB"
       inkscape:label="Drop Shadow"
       id="filter4037">
      <feFlood
         flood-opacity="0.498039"
         flood-color="rgb(0,0,0)"
         result="flood"
         id="feFlood4027" />
      <feComposite
         in="flood"
         in2="SourceGraphic"
         operator="in"
         result="composite1"
         id="feComposite4029" />
      <feGaussianBlur
         in="composite1"
         stdDeviation="0"
         result="blur"
         id="feGaussianBlur4031" />
      <feOffset
         dx="0"
         dy="0"
         result="offset"
         id="feOffset4033" />
      <feComposite
         in="SourceGraphic"
         in2="offset"
         operator="over"
         result="composite2"
         id="feComposite4035" />
    </filter>
    <filter
       style="color-interpolation-filters:sRGB"
       inkscape:label="Drop Shadow"
       id="filter4497">
      <feFlood
         flood-opacity="0.498039"
         flood-color="rgb(0,0,0)"
         result="flood"
         id="feFlood4487" />
      <feComposite
         in="flood"
         in2="SourceGraphic"
         operator="in"
         result="composite1"
         id="feComposite4489" />
      <feGaussianBlur
         in="composite1"
         stdDeviation="7"
         result="blur"
         id="feGaussianBlur4491" />
      <feOffset
         dx="10"
         dy="10"
         result="offset"
         id="feOffset4493" />
      <feComposite
         in="SourceGraphic"
         in2="offset"
         operator="over"
         result="composite2"
         id="feComposite4495" />
    </filter>
  </defs>
  <sodipodi:namedview
     pagecolor="#ffffff"
     bordercolor="#666666"
     borderopacity="1"
     objecttolerance="10"
     gridtolerance="10"
     guidetolerance="10"
     inkscape:pageopacity="0"
     inkscape:pageshadow="2"
     inkscape:window-width="1920"
     inkscape:window-height="1005"
     id="namedview3839"
     showgrid="false"
     inkscape:zoom="0.42982097"
     inkscape:cx="1469.2631"
     inkscape:cy="-43.265523"
     inkscape:window-x="0"
     inkscape:window-y="0"
     inkscape:window-maximized="1"
     inkscape:current-layer="svg"
     fit-margin-top="0"
     fit-margin-left="0"
     fit-margin-right="0"
     fit-margin-bottom="0" />
  <g
     id="g4485"
     style="filter:url(#filter4497)"
     transform="translate(509.5745,492.1865)">
    <g
       transform="matrix(2.1573914,0,0,2.1573914,-197.17057,-267.28365)"
       id="svgg">
      <path
         style="fill:#000000;fill-rule:evenodd;stroke:none"
         inkscape:connector-curvature="0"
         d="m 58.928976,-87.558659 c 0.002,0.174 0.475,6.297 1.052,13.607 0.576,7.31 1.05,14.023 1.051,14.917 l 0.004,1.626 -1.489,-1.307 c -4.95,-4.346 -13.021,-5.772 -30.684,-5.42 -28.80999937,0.573 -34.2829994,5.91 -34.2829994,33.433 0,18.877 2.484,25.5530004 11.135,29.93400029 C 16.869976,4.8793413 48.969976,4.3733413 58.030976,-1.5936587 c 1.229,-0.809 2.293,-1.472 2.364,-1.472 0.132,0 -0.477,2.99599999 -0.88,4.325 -0.208,0.686 0.365,0.739 8.032,0.739 h 8.257 v -44.9370003 -44.937 h -8.439 c -4.642,0 -8.438,0.143 -8.436,0.317 m 120.671994,44.62 V 1.9983413 h 8.277 8.277 l -0.26,-0.95 c -0.143,-0.52200001 -0.385,-1.69500001 -0.537,-2.607 l -0.277,-1.658 1.305,0.929 c 7.038,5.012 27.178,6.963 44.186,4.28 16.433,-2.59200001 22.196,-13.6330003 20.477,-39.2330003 -1.479,-22.033 -8.097,-26.778 -37.355,-26.787 -17.235,-0.006 -22.363,0.95 -27.482,5.119 l -2.299,1.872 0.235,-2.023 c 0.129,-1.112 0.608,-7.149 1.065,-13.415 0.457,-6.266 0.935,-12.294 1.063,-13.397 l 0.232,-2.004 h -8.454 -8.453 v 44.937 m 91.983,-36.076 v 8.861 h 8.439 8.439 v -8.861 -8.861 h -8.439 -8.439 v 8.861 m -159.493,15.198 c -21.459994,2.138 -27.213994,11.018 -25.696994,39.654 1.173,22.1550003 8.662,27.0600003 41.307994,27.0600003 34.572,0 41.351,-5.508 41.351,-33.6000003 0,-22.29 -4.994,-29.855 -21.495,-32.563 -4.663,-0.766 -29.45,-1.15 -35.467,-0.551 m 213.924,-0.133 c -20.394,1.604 -26.73,9.422 -26.775,33.036 -0.053,28.0110003 6.868,33.7970003 40.456,33.8220003 30.316,0.022 39.061,-5.291 39.061,-23.7320003 v -3.761 h -7.962 -7.963 l -0.301,4.246 c -0.562,7.932 -1.782,8.45 -20.519,8.725 -22.809,0.335 -25.317,-0.913 -26.287,-13.076 l -0.227,-2.848 5.997,0.008 c 3.298,0.005 15.205,0.286 26.461,0.625 11.255,0.339 22.72,0.62 25.477,0.624 l 5.014,0.009 -0.223,-8.967 c -0.449,-18.039 -4.303,-24.004 -17.61,-27.253 -6.362,-1.554 -23.958,-2.295 -34.599,-1.458 m -54.149,0.828 c -0.155,0.155 -0.282,14.87 -0.282,32.701 V 1.9983413 h 8.439 8.439 v -32.7010003 -32.7 h -8.158 c -4.486,0 -8.284,0.126 -8.438,0.281 m 81.575,13.623 c 5.943,1.031 7.804,2.883 8.306,8.267 l 0.267,2.86 -9.244,-0.274 c -5.085,-0.151 -15.386,-0.402 -22.892,-0.558 -15.316,-0.319 -14.371,-0.055 -13.407,-3.746 1.143,-4.38 3.767,-6.082 10.729,-6.96 3.811,-0.48 22.821,-0.182 26.241,0.411 m -302.953994,0.443 c 7.216,1.502 8.69,5.079 8.326,20.21 -0.388,16.17 -1.687,17.09 -24.149,17.096 -20.776,0.005 -22.582,-1.041 -23.425,-13.571 -1.028,-15.3 0.702,-21.422 6.537,-23.118 4.953,-1.44 26.778,-1.852 32.711,-0.617 m 92.615994,-0.01 c 7.925,1.515 9.25,4.145 9.25,18.363 0,17.395 -1.292,18.564 -21.064,19.068 -26.213,0.667 -28.27,-0.721 -28.27,-19.068 0,-15.71 1.258,-17.594 12.543,-18.773 4.682,-0.49 24.369,-0.197 27.541,0.41 m 92.914,0.191 c 7.272,1.725 9.172,6.715 8.351,21.938 -0.775,14.35 -3.681,15.974 -27.392,15.301 -17.325,-0.492 -19.617,-2.024 -20.506,-13.697 -1.127,-14.816 0.774,-21.352 6.76,-23.245 4.677,-1.479 26.953,-1.681 32.787,-0.297"
         id="path0" />
    </g>
    <g
       id="svgg-7"
       transform="matrix(3.5131601,0,0,3.5131601,524.89516,-402.06156)">
      <path
         d="m 195.50933,0.04093547 c -3.75268,0.78655635 -5.99519,3.05400853 -7.17122,7.25367703 -0.75293,2.6905648 -0.85816,21.8977295 -0.13453,24.7087185 1.42773,5.551461 4.70957,8.02396 10.66787,8.034809 7.33288,0.01302 10.26537,-3.138631 10.55939,-11.349194 l 0.13018,-3.620329 h -3.44457 -3.44457 l -0.0879,3.620329 c -0.12259,5.048064 -0.72254,6.034244 -3.66698,6.034244 -3.66263,0 -3.75811,-0.35151 -3.85466,-14.194903 -0.0998,-14.351127 0.0358,-14.9912211 3.26882,-15.4761738 3.15056,-0.4730187 4.14,0.8570752 4.25717,5.7196218 l 0.0846,3.497734 h 3.41311 3.4142 l -0.004,-2.884763 c -0.007,-6.02014 -1.73477,-9.4061296 -5.53844,-10.85881787 -1.6458,-0.62816017 -6.44867,-0.90372613 -8.44816,-0.48495266 m 149.53793,0.11174524 c -4.13241,1.15976389 -6.39443,4.09985729 -6.62986,8.61414839 -0.26688,5.0979699 0.88203,7.1169789 7.15713,12.5805619 5.44296,4.738867 6.53438,6.289197 6.53438,9.283535 0,2.567971 -1.05887,3.860093 -3.16358,3.860093 -2.38572,0 -3.795,-1.811792 -4.2908,-5.512404 -0.3027,-2.260942 -0.009,-2.147027 -3.65288,-1.421226 l -2.63849,0.526179 0.004,1.008963 c 0.0228,5.521083 3.25798,9.84443 8.03699,10.739478 6.73943,1.262829 12.17155,-2.497453 12.52848,-8.670564 0.30703,-5.308442 -1.31816,-8.18561 -7.94368,-14.064712 -6.09391,-5.406084 -7.39905,-8.1975455 -5.10665,-10.9217428 2.4226,-2.8793387 5.68057,-0.8266978 6.146,3.8720278 0.10632,1.071886 0.24518,1.511273 0.45349,1.43099 0.1649,-0.06293 1.52862,-0.311369 3.03122,-0.550047 l 2.73179,-0.436132 V 9.7193763 c 0,-7.0117435 -6.22519,-11.5238648 -13.19788,-9.56669559 M 53.514613,0.82423709 C 53.375746,1.4046615 45.782493,39.368753 45.782493,39.484839 c 0,0.0358 1.521038,0.06618 3.380565,0.06618 h 3.381651 l 0.68783,-3.989201 c 0.378632,-2.193678 0.746414,-4.236556 0.818018,-4.540329 0.126934,-0.540283 0.207216,-0.552217 3.520517,-0.552217 h 3.39033 l 0.137782,0.674812 c 0.177925,0.876603 1.373491,8.058676 1.373491,8.256129 0,0.08246 1.491745,0.150802 3.314386,0.150802 2.493112,0 3.310046,-0.07595 3.301367,-0.307029 -0.0065,-0.169241 -1.752123,-8.977588 -3.877452,-19.574943 L 61.345461,0.40112404 57.497301,0.3338599 C 53.671925,0.26659572 53.648057,0.26876557 53.514613,0.82423709 M 315.29047,19.914231 v 19.636787 h 3.19071 3.19071 V 19.914231 0.27852973 h -3.19071 -3.19071 V 19.914231 m -54.79206,-12.7020712 -0.0672,4.2343852 -1.41147,0.07377 -1.41036,0.07269 v 2.062405 2.06132 l 1.41036,0.07377 1.41147,0.07377 0.1226,9.818393 c 0.13669,10.854477 0.14104,10.887024 1.78575,12.585987 1.0632,1.099009 2.66452,1.528632 5.68382,1.524291 3.78415,-0.0055 3.57584,0.156227 3.57693,-2.787122 v -2.486602 l -1.24004,0.08571 c -3.16034,0.219151 -3.17878,0.160566 -3.17878,-10.283817 v -8.57944 h 2.08627 2.08628 v -2.086274 -2.086273 h -2.08628 -2.08627 V 7.2739994 2.9777742 h -3.30787 -3.30789 l -0.0672,4.2343856 m 143.34529,0 -0.0672,4.2343852 -1.41146,0.07377 -1.41146,0.07269 v 2.062405 2.06132 l 1.41146,0.07377 1.41146,0.07377 0.12259,9.818393 c 0.13561,10.854477 0.13996,10.887024 1.78576,12.585987 1.06321,1.099009 2.66452,1.528632 5.68381,1.524291 3.78307,-0.0055 3.57585,0.156227 3.57585,-2.787122 v -2.486602 l -1.24004,0.08571 c -3.16033,0.219151 -3.1777,0.160566 -3.1777,-10.283817 v -8.57944 h 2.08628 2.08628 v -2.086274 -2.086273 h -2.08628 -2.08628 V 7.2739994 2.9777742 h -3.30787 -3.30787 l -0.0672,4.2343856 M 58.912159,17.896307 l 1.251982,7.786366 -2.559292,0.06944 c -1.408208,0.03906 -2.594009,0.03688 -2.635235,-0.0044 -0.04123,-0.04123 0.497971,-3.625753 1.19882,-7.965375 0.699764,-4.338536 1.322499,-7.8406109 1.382169,-7.780941 0.05967,0.05966 0.672642,3.612735 1.361556,7.894856 m 18.976079,-6.474669 c -4.328772,1.165189 -5.594856,3.914339 -5.780376,12.552355 -0.256037,11.888393 1.426651,15.306929 7.859056,15.966552 6.362969,0.652028 9.751129,-2.611368 9.751129,-9.389856 v -2.045047 h -3.035566 -3.035565 l -0.12151,2.515896 c -0.192027,3.994622 -2.083018,5.731555 -3.968583,3.647452 -1.581792,-1.747782 -1.165189,-18.145042 0.477358,-18.774287 2.35533,-0.903726 3.511839,0.591273 3.536792,4.571791 l 0.01085,1.65665 h 3.099575 3.100659 L 89.649702,19.484598 C 89.30781,12.655129 84.795689,9.5620648 77.888096,11.421592 m 21.473532,-0.0021 c -4.657498,1.522122 -5.525423,3.546556 -5.657781,13.194619 -0.169245,12.359241 1.577453,15.317778 9.023163,15.288486 6.06354,-0.02386 8.57619,-3.052924 8.58921,-10.354337 l 0.002,-1.042594 h -3.16468 -3.16467 l -0.089,2.797972 c -0.11283,3.562829 -1.03826,4.705233 -3.11585,3.844903 -1.3518,-0.55981 -1.38218,-0.74316 -1.46571,-8.729148 -0.10416,-9.849855 0.0738,-10.677638 2.29132,-10.677638 1.85194,0 2.11231,0.428538 2.3076,3.804763 l 0.14212,2.454056 3.0117,0.06944 c 3.59213,0.08246 3.41529,0.270141 3.06053,-3.237358 -0.4101,-4.046697 -1.50043,-5.882356 -4.21921,-7.09745 -1.43858,-0.642265 -5.97133,-0.832122 -7.550951,-0.315708 m 21.516961,-0.0065 c -4.81047,1.297546 -6.00387,4.443772 -5.81944,15.343816 0.17793,10.480186 1.94741,13.089383 8.8995,13.12844 5.77387,0.03254 8.71397,-2.905376 8.71397,-8.705281 v -1.938726 h -3.06812 -3.06811 l -0.005,1.535141 c -0.0119,3.106084 -0.69218,4.355895 -2.36944,4.355895 -2.11557,0 -2.53435,-0.951461 -2.53435,-5.759763 v -3.567168 h 5.52327 5.52218 l -0.003,-3.497735 c -0.01,-9.076402 -4.19524,-12.94409 -11.79068,-10.894704 m 20.43532,0.116085 c -3.43808,1.224859 -5.40284,4.649904 -4.73562,8.256129 0.47627,2.578821 1.07731,3.368632 5.60788,7.369763 4.23114,3.737499 4.79095,4.423159 4.82241,5.906224 0.0824,3.957735 -5.20972,2.501792 -6.12972,-1.687028 -0.0846,-0.381886 -0.27991,-0.647688 -0.43613,-0.590188 -4.5436,1.659905 -4.61954,1.700047 -4.45789,2.362924 2.40199,9.85528 17.71654,8.76495 17.00376,-1.210755 -0.16708,-2.322782 -1.02958,-3.770046 -3.86228,-6.483394 -6.76548,-6.477969 -6.63529,-6.331508 -6.63529,-7.466318 0,-3.573678 4.04671,-2.858726 5.36378,0.947121 l 0.40467,1.169529 2.14053,-0.875519 c 2.45189,-1.002452 2.42151,-0.912406 1.18147,-3.608395 -1.74996,-3.801509 -6.15361,-5.5558 -10.26757,-4.090093 m 19.60862,-0.04882 c -3.27208,1.145659 -4.93199,3.484715 -4.93199,6.948818 0,3.276414 0.75401,4.419905 5.87261,8.901648 4.36674,3.825377 5.16849,5.052405 4.44377,6.803442 -1.00571,2.428018 -4.53166,1.182546 -5.69684,-2.013584 -0.28642,-0.786558 -0.64227,-1.38434 -0.7909,-1.330095 -5.24227,1.953915 -4.8951,1.579622 -3.72341,4.023914 3.65289,7.622545 15.6422,6.661319 16.28229,-1.306226 0.30161,-3.758112 -0.53595,-5.184763 -5.95831,-10.144949 -4.63689,-4.240895 -5.34642,-5.434291 -4.05538,-6.819716 1.725,-1.851933 5.12185,0.261463 5.15765,3.20698 0.003,0.248444 0.0955,0.413349 0.20505,0.368869 4.28212,-1.753208 4.26694,-1.743444 4.11288,-2.512641 -0.97208,-4.859292 -6.18397,-7.7831117 -10.91742,-6.12646 m 58.82141,-0.134529 c -3.14405,0.739905 -5.18042,3.146225 -5.83028,6.886979 -0.36127,2.083018 -0.19853,14.675514 0.20613,15.920985 2.52892,7.790706 14.5985,7.945848 17.02217,0.219151 0.70627,-2.251178 0.86575,-13.989854 0.22892,-16.860513 -1.09576,-4.942828 -5.93335,-7.50863 -11.62694,-6.166602 m 26.9892,0.330896 c -0.7844,0.322217 -1.94415,0.990518 -2.57774,1.48415 l -1.15109,0.899388 -0.0738,-1.245472 -0.0748,-1.245472 h -3.30028 -3.30137 v 13.99094 13.990939 h 3.31113 3.31114 l 0.064,-11.222261 0.064,-11.221176 0.98185,-0.561981 c 1.36155,-0.780047 3.04857,-0.694339 3.48796,0.177925 0.23543,0.466509 0.31029,3.287263 0.31245,11.720232 l 0.004,11.107261 h 3.3133 3.3133 V 27.690833 c 0,-12.942921 -0.0564,-13.559148 -1.40603,-15.161552 -1.31817,-1.566603 -3.74184,-1.896415 -6.27835,-0.852736 m 39.84097,-0.275566 c -0.84406,0.269056 -2.80339,2.038537 -3.85576,3.481461 l -0.53703,0.736651 -0.0131,-2.025518 -0.0141,-2.024433 h -3.31331 -3.31438 v 13.990939 13.990939 h 3.31438 3.31331 v -9.702309 -9.701223 l 1.08273,-1.082735 c 1.5091,-1.509103 3.68326,-1.963679 5.69901,-1.190142 0.27557,0.105236 0.33631,-0.500141 0.33631,-3.333914 v -3.463018 l -0.91999,0.02604 c -0.50665,0.01302 -1.30623,0.147548 -1.77816,0.297264 m 11.17886,0.06944 c -2.69164,0.859245 -4.38302,2.684056 -5.1598,5.568819 -0.64119,2.377028 -0.45024,16.193298 0.24736,17.970372 2.49527,6.355375 13.34433,6.757876 16.2356,0.602123 1.29863,-2.763254 1.5525,-16.427637 0.36128,-19.428485 -1.64147,-4.136744 -6.87614,-6.2479699 -11.68444,-4.712829 m 89.72276,0.0097 c -3.27099,1.14566 -4.93089,3.484715 -4.93089,6.948818 0,3.276414 0.754,4.419905 5.87151,8.901648 4.36783,3.825377 5.16957,5.052405 4.44484,6.803442 -1.00679,2.428019 -4.53164,1.182546 -5.69683,-2.013584 -0.28641,-0.786557 -0.64226,-1.38434 -0.79089,-1.330094 -5.24227,1.953914 -4.89618,1.579622 -3.72449,4.023914 3.65289,7.622545 15.64325,6.661318 16.28226,-1.306226 0.30161,-3.758112 -0.53594,-5.184763 -5.9583,-10.14495 -4.6358,-4.240895 -5.34533,-5.434291 -4.05429,-6.819715 1.72501,-1.851933 5.12184,0.261462 5.15656,3.20698 0.003,0.248444 0.0955,0.413349 0.20613,0.368868 4.28213,-1.753207 4.26585,-1.743443 4.11179,-2.51264 -0.97098,-4.859292 -6.18287,-7.7831122 -10.9174,-6.126461 m 36.519,-0.03147 c -2.76868,0.884198 -4.43618,2.777359 -5.25203,5.959386 -0.68783,2.686225 -0.42528,15.633485 0.35693,17.59391 1.49609,3.750517 5.46576,5.614385 10.24042,4.8083 4.31793,-0.727972 6.25991,-3.192876 6.63312,-8.421036 l 0.15405,-2.148112 h -3.20372 -3.20481 l -0.0846,2.313018 c -0.10416,2.831603 -0.5826,3.578018 -2.29458,3.578018 -2.02226,0 -2.54844,-1.295377 -2.5658,-6.319574 l -0.0108,-3.007358 h 5.68057 5.67948 l -0.13453,-3.865517 c -0.21048,-6.067876 -1.24331,-8.509997 -4.22788,-10.000657 -1.78467,-0.890707 -5.73047,-1.140236 -7.76575,-0.490378 m 27.0304,-0.141019 c -0.9634,0.292925 -2.24576,0.998114 -3.25145,1.787925 l -0.92001,0.723632 V 12.694186 11.56914 h -3.1907 -3.19071 v 13.990939 13.990939 h 3.19071 3.1907 V 28.29838 c 0,-10.410752 0.0326,-11.281931 0.42963,-11.630186 1.25632,-1.102263 3.41203,-1.525377 4.3342,-0.850565 0.75183,0.550046 0.86032,2.177405 0.87118,13.11759 l 0.0108,10.615799 h 3.06812 3.0681 V 28.29838 c 0,-10.410752 0.0315,-11.281931 0.42963,-11.630186 1.38868,-1.218348 3.60513,-1.554669 4.47958,-0.68132 0.47627,0.477359 0.49037,0.818019 0.49037,12.02726 v 11.536884 h 3.19939 3.19938 l -0.0695,-12.334289 c -0.0792,-13.87377 -0.009,-13.345421 -2.01466,-15.106222 -2.06349,-1.812877 -6.28052,-1.255236 -9.06981,1.199905 l -1.08924,0.959057 -0.63359,-1.08165 c -1.06104,-1.810708 -3.99028,-2.653679 -6.53222,-1.880142 m -90.32596,0.390566 c 0,0.07052 1.48524,5.842215 3.30029,12.824666 4.79636,18.45424 4.77683,17.344382 0.32004,17.865137 l -1.41146,0.164905 v 2.303254 2.303254 h 1.58396 c 4.2192,0 7.21137,-1.594811 8.49481,-4.528394 0.34609,-0.789812 7.10829,-30.183152 7.10396,-30.877492 0,-0.101981 -1.4158,-0.184433 -3.14514,-0.184433 h -3.14514 l -1.41472,8.406931 c -0.77787,4.623867 -1.49066,8.718299 -1.58396,9.100186 -0.12477,0.504481 -0.59236,-1.457028 -1.72717,-7.241743 -0.85708,-4.36349 -1.66424,-8.457922 -1.79552,-9.099101 l -0.23868,-1.166273 h -3.1701 c -1.74452,0 -3.17117,0.0575 -3.17117,0.129103 m -136.42241,4.466555 c 1.05562,0.930849 1.38651,16.319147 0.38948,18.140703 -0.90155,1.644716 -3.28184,1.473301 -4.01848,-0.28967 -0.57175,-1.36698 -0.50123,-15.87976 0.0824,-17.043862 0.72038,-1.436416 2.39981,-1.818302 3.54655,-0.807171 m 77.66621,-0.418773 c 1.41254,0.492547 1.43642,0.633585 1.51886,9.077403 0.0966,9.827072 -0.0586,10.555044 -2.25335,10.555044 -2.37702,0 -2.46924,-0.328726 -2.56363,-9.024242 -0.10523,-9.619856 0.064,-10.371696 2.43453,-10.829525 0.0803,-0.01519 0.46976,0.08354 0.86359,0.22132 m -176.51228,0.547877 c 0.78331,0.675897 1.0925,1.917028 1.1001,4.418819 l 0.006,1.90184 h -2.4823 -2.48227 l 0.10849,-2.515895 c 0.1725,-3.969669 1.72934,-5.548207 3.75053,-3.804764 m 302.88667,-0.308113 c 0.97099,0.368868 1.35396,1.583962 1.35396,4.298395 v 2.347736 l -2.3933,-0.06944 -2.3933,-0.07052 0.0423,-2.382452 c 0.0672,-3.697357 1.12505,-4.98514 3.39033,-4.123725"
         id="path0-6"
         inkscape:connector-curvature="0"
         style="fill:#000000;fill-rule:evenodd;stroke:none;stroke-width:1.08490539" />
    </g>
    <g
       id="g12"
       transform="matrix(0.26632923,0,0,0.26632923,-543.62424,-510.09369)">
      <path
         sodipodi:nodetypes="cccccccccccccccccc"
         inkscape:connector-curvature="0"
         id="path10"
         d="M 690.479,363.13 694.391,195 c -6.063,-6.062 -36.756,48.483 -53.177,83.674 -16.422,35.19 -25.807,55.522 -25.807,55.522 0,0 -27.43859,-25.44343 -111.044,-20.332 l 4.693,-190.027 c 0,0 -34.61873,43.19129 -42.43573,58.92429 C 309.08357,462.76156 261.13154,571.22535 212.22124,702.91003 248.3515,890.76125 434.66729,936.71074 606.22292,937.60214 L 653.04003,647.53305 965.87532,582.483 c 0,0 29.3583,-34.35997 44.08008,-77.10346 z m -86.801,72.336 c -23.851,-10.948 -16.03,-38.709 -16.03,-38.709 0,0 16.788,-0.39 32.427,2.346 15.639,2.737 34.058,16.518 33.65,19.55 -5.084,7.039 -26.199,27.761 -50.047,16.813 z" />
    </g>
  </g>
</svg>
