<?xml version="1.0" encoding="UTF-8" standalone="no"?>
<svg
   xmlns:dc="http://purl.org/dc/elements/1.1/"
   xmlns:cc="http://creativecommons.org/ns#"
   xmlns:rdf="http://www.w3.org/1999/02/22-rdf-syntax-ns#"
   xmlns:svg="http://www.w3.org/2000/svg"
   xmlns="http://www.w3.org/2000/svg"
   xmlns:sodipodi="http://sodipodi.sourceforge.net/DTD/sodipodi-0.dtd"
   xmlns:inkscape="http://www.inkscape.org/namespaces/inkscape"
   id="svg"
   version="1.1"
   width="948"
   height="280"
   sodipodi:docname="dobie_header.svg"
   inkscape:version="0.92.4 5da689c313, 2019-01-14">
  <metadata
     id="metadata3843">
    <rdf:RDF>
      <cc:Work
         rdf:about="">
        <dc:format>image/svg+xml</dc:format>
        <dc:type
           rdf:resource="http://purl.org/dc/dcmitype/StillImage" />
        <dc:title></dc:title>
      </cc:Work>
    </rdf:RDF>
  </metadata>
  <defs
     id="defs3841">
    <filter
       style="color-interpolation-filters:sRGB"
       inkscape:label="Drop Shadow"
       id="filter4126">
      <feFlood
         flood-opacity="0.498039"
         flood-color="rgb(0,0,0)"
         result="flood"
         id="feFlood4116" />
      <feComposite
         in="flood"
         in2="SourceGraphic"
         operator="in"
         result="composite1"
         id="feComposite4118" />
      <feGaussianBlur
         in="composite1"
         stdDeviation="2"
         result="blur"
         id="feGaussianBlur4120" />
      <feOffset
         dx="4"
         dy="4"
         result="offset"
         id="feOffset4122" />
      <feComposite
         in="SourceGraphic"
         in2="offset"
         operator="over"
         result="composite2"
         id="feComposite4124" />
    </filter>
  </defs>
  <sodipodi:namedview
     pagecolor="#ffffff"
     bordercolor="#666666"
     borderopacity="1"
     objecttolerance="10"
     gridtolerance="10"
     guidetolerance="10"
     inkscape:pageopacity="0"
     inkscape:pageshadow="2"
     inkscape:window-width="1920"
     inkscape:window-height="1005"
     id="namedview3839"
     showgrid="false"
     inkscape:zoom="1.2157173"
     inkscape:cx="519.0075"
     inkscape:cy="155.0929"
     inkscape:window-x="0"
     inkscape:window-y="0"
     inkscape:window-maximized="1"
     inkscape:current-layer="svg" />
  <g
     id="g4042"
     transform="matrix(1.7387018,0,0,1.7387018,-271.60361,-159.1097)"
     style="filter:url(#filter4126)"
     inkscape:export-xdpi="96"
     inkscape:export-ydpi="96">
    <g
       transform="translate(314.12174,84.269232)"
       id="svgg">
      <path
         style="fill:#000000;fill-rule:evenodd;stroke:none"
         inkscape:connector-curvature="0"
         d="m 57.172043,20.148 c 0.002,0.174 0.475,6.297 1.052,13.607 0.576,7.31 1.05,14.023 1.051,14.917 l 0.004,1.626 -1.489,-1.307 c -4.95,-4.346 -13.021,-5.772 -30.684,-5.42 -28.8100001,0.573 -34.2830001,5.91 -34.2830001,33.433 0,18.877 2.484,25.553 11.135,29.934 11.1550001,5.648 43.2550001,5.142 52.3160001,-0.825 1.229,-0.809 2.293,-1.472 2.364,-1.472 0.132,0 -0.477,2.996 -0.88,4.325 -0.208,0.686 0.365,0.739 8.032,0.739 h 8.257 V 64.768 19.831 h -8.439 c -4.642,0 -8.438,0.143 -8.436,0.317 m 120.671997,44.62 v 44.937 h 8.277 8.277 l -0.26,-0.95 c -0.143,-0.522 -0.385,-1.695 -0.537,-2.607 l -0.277,-1.658 1.305,0.929 c 7.038,5.012 27.178,6.963 44.186,4.28 16.433,-2.592 22.196,-13.633 20.477,-39.233 -1.479,-22.033 -8.097,-26.778 -37.355,-26.787 -17.235,-0.006 -22.363,0.95 -27.482,5.119 l -2.299,1.872 0.235,-2.023 c 0.129,-1.112 0.608,-7.149 1.065,-13.415 0.457,-6.266 0.935,-12.294 1.063,-13.397 l 0.232,-2.004 h -8.454 -8.453 v 44.937 m 91.983,-36.076 v 8.861 h 8.439 8.439 v -8.861 -8.861 h -8.439 -8.439 v 8.861 m -159.493,15.198 c -21.459997,2.138 -27.213997,11.018 -25.696997,39.654 1.173,22.155 8.662,27.06 41.307997,27.06 34.572,0 41.351,-5.508 41.351,-33.6 0,-22.29 -4.994,-29.855 -21.495,-32.563 -4.663,-0.766 -29.45,-1.15 -35.467,-0.551 m 213.924,-0.133 c -20.394,1.604 -26.73,9.422 -26.775,33.036 -0.053,28.011 6.868,33.797 40.456,33.822 30.316,0.022 39.061,-5.291 39.061,-23.732 v -3.761 h -7.962 -7.963 l -0.301,4.246 c -0.562,7.932 -1.782,8.45 -20.519,8.725 -22.809,0.335 -25.317,-0.913 -26.287,-13.076 l -0.227,-2.848 5.997,0.008 c 3.298,0.005 15.205,0.286 26.461,0.625 11.255,0.339 22.72,0.62 25.477,0.624 l 5.014,0.009 -0.223,-8.967 c -0.449,-18.039 -4.303,-24.004 -17.61,-27.253 -6.362,-1.554 -23.958,-2.295 -34.599,-1.458 m -54.149,0.828 c -0.155,0.155 -0.282,14.87 -0.282,32.701 v 32.419 h 8.439 8.439 v -32.701 -32.7 h -8.158 c -4.486,0 -8.284,0.126 -8.438,0.281 m 81.575,13.623 c 5.943,1.031 7.804,2.883 8.306,8.267 l 0.267,2.86 -9.244,-0.274 c -5.085,-0.151 -15.386,-0.402 -22.892,-0.558 -15.316,-0.319 -14.371,-0.055 -13.407,-3.746 1.143,-4.38 3.767,-6.082 10.729,-6.96 3.811,-0.48 22.821,-0.182 26.241,0.411 M 48.730043,58.651 c 7.216,1.502 8.69,5.079 8.326,20.21 -0.388,16.17 -1.687,17.09 -24.149,17.096 -20.776,0.005 -22.582,-1.041 -23.4250001,-13.571 -1.028,-15.3 0.7020001,-21.422 6.5370001,-23.118 4.953,-1.44 26.778,-1.852 32.711,-0.617 m 92.615997,-0.01 c 7.925,1.515 9.25,4.145 9.25,18.363 0,17.395 -1.292,18.564 -21.064,19.068 -26.213,0.667 -28.27,-0.721 -28.27,-19.068 0,-15.71 1.258,-17.594 12.543,-18.773 4.682,-0.49 24.369,-0.197 27.541,0.41 m 92.914,0.191 c 7.272,1.725 9.172,6.715 8.351,21.938 -0.775,14.35 -3.681,15.974 -27.392,15.301 -17.325,-0.492 -19.617,-2.024 -20.506,-13.697 -1.127,-14.816 0.774,-21.352 6.76,-23.245 4.677,-1.479 26.953,-1.681 32.787,-0.297"
         id="path0" />
    </g>
    <g
       id="svgg-7"
       transform="matrix(0.98098762,0,0,0.98098762,302.82791,198.52185)">
      <path
         d="m 142.308,3.175 c -3.459,0.725 -5.526,2.815 -6.61,6.686 -0.694,2.48 -0.791,20.184 -0.124,22.775 1.316,5.117 4.341,7.396 9.833,7.406 6.759,0.012 9.462,-2.893 9.733,-10.461 l 0.12,-3.337 h -3.175 -3.175 l -0.081,3.337 c -0.113,4.653 -0.666,5.562 -3.38,5.562 -3.376,0 -3.464,-0.324 -3.553,-13.084 -0.092,-13.228 0.033,-13.818 3.013,-14.265 2.904,-0.436 3.816,0.79 3.924,5.272 l 0.078,3.224 h 3.146 3.147 L 155.2,13.631 c -0.007,-5.549 -1.599,-8.67 -5.105,-10.009 -1.517,-0.579 -5.944,-0.833 -7.787,-0.447 m 137.835,0.103 c -3.809,1.069 -5.894,3.779 -6.111,7.94 -0.246,4.699 0.813,6.56 6.597,11.596 5.017,4.368 6.023,5.797 6.023,8.557 0,2.367 -0.976,3.558 -2.916,3.558 -2.199,0 -3.498,-1.67 -3.955,-5.081 -0.279,-2.084 -0.008,-1.979 -3.367,-1.31 l -2.432,0.485 0.004,0.93 c 0.021,5.089 3.003,9.074 7.408,9.899 6.212,1.164 11.219,-2.302 11.548,-7.992 0.283,-4.893 -1.215,-7.545 -7.322,-12.964 -5.617,-4.983 -6.82,-7.556 -4.707,-10.067 2.233,-2.654 5.236,-0.762 5.665,3.569 0.098,0.988 0.226,1.393 0.418,1.319 0.152,-0.058 1.409,-0.287 2.794,-0.507 l 2.518,-0.402 v -0.712 c 0,-6.463 -5.738,-10.622 -12.165,-8.818 M 11.426,3.897 c -0.128,0.535 -7.127,35.528 -7.127,35.635 0,0.033 1.402,0.061 3.116,0.061 h 3.117 l 0.634,-3.677 c 0.349,-2.022 0.688,-3.905 0.754,-4.185 0.117,-0.498 0.191,-0.509 3.245,-0.509 h 3.125 l 0.127,0.622 c 0.164,0.808 1.266,7.428 1.266,7.61 0,0.076 1.375,0.139 3.055,0.139 2.298,0 3.051,-0.07 3.043,-0.283 -0.006,-0.156 -1.615,-8.275 -3.574,-18.043 L 18.644,3.507 15.097,3.445 C 11.571,3.383 11.549,3.385 11.426,3.897 m 241.289,17.596 v 18.1 h 2.941 2.941 V 21.493 3.394 h -2.941 -2.941 v 18.099 m -50.504,-11.708 -0.062,3.903 -1.301,0.068 -1.3,0.067 v 1.901 1.9 l 1.3,0.068 1.301,0.068 0.113,9.05 c 0.126,10.005 0.13,10.035 1.646,11.601 0.98,1.013 2.456,1.409 5.239,1.405 3.488,-0.005 3.296,0.144 3.297,-2.569 v -2.292 l -1.143,0.079 c -2.913,0.202 -2.93,0.148 -2.93,-9.479 v -7.908 h 1.923 1.923 v -1.923 -1.923 h -1.923 -1.923 V 9.842 5.882 h -3.049 -3.049 l -0.062,3.903 m 132.127,0 -0.062,3.903 -1.301,0.068 -1.301,0.067 v 1.901 1.9 l 1.301,0.068 1.301,0.068 0.113,9.05 c 0.125,10.005 0.129,10.035 1.646,11.601 0.98,1.013 2.456,1.409 5.239,1.405 3.487,-0.005 3.296,0.144 3.296,-2.569 v -2.292 l -1.143,0.079 c -2.913,0.202 -2.929,0.148 -2.929,-9.479 v -7.908 h 1.923 1.923 v -1.923 -1.923 h -1.923 -1.923 V 9.842 5.882 h -3.049 -3.049 l -0.062,3.903 m -317.937,9.848 1.154,7.177 -2.359,0.064 c -1.298,0.036 -2.391,0.034 -2.429,-0.004 -0.038,-0.038 0.459,-3.342 1.105,-7.342 0.645,-3.999 1.219,-7.227 1.274,-7.172 0.055,0.055 0.62,3.33 1.255,7.277 m 17.491,-5.968 c -3.99,1.074 -5.157,3.608 -5.328,11.57 -0.236,10.958 1.315,14.109 7.244,14.717 5.865,0.601 8.988,-2.407 8.988,-8.655 V 29.412 H 41.998 39.2 l -0.112,2.319 c -0.177,3.682 -1.92,5.283 -3.658,3.362 -1.458,-1.611 -1.074,-16.725 0.44,-17.305 2.171,-0.833 3.237,0.545 3.26,4.214 l 0.01,1.527 h 2.857 2.858 L 44.733,21.097 C 44.418,14.802 40.259,11.951 33.892,13.665 m 19.793,-0.002 c -4.293,1.403 -5.093,3.269 -5.215,12.162 -0.156,11.392 1.454,14.119 8.317,14.092 5.589,-0.022 7.905,-2.814 7.917,-9.544 l 0.002,-0.961 h -2.917 -2.917 l -0.082,2.579 c -0.104,3.284 -0.957,4.337 -2.872,3.544 -1.246,-0.516 -1.274,-0.685 -1.351,-8.046 -0.096,-9.079 0.068,-9.842 2.112,-9.842 1.707,0 1.947,0.395 2.127,3.507 l 0.131,2.262 2.776,0.064 c 3.311,0.076 3.148,0.249 2.821,-2.984 -0.378,-3.73 -1.383,-5.422 -3.889,-6.542 -1.326,-0.592 -5.504,-0.767 -6.96,-0.291 m 19.833,-0.006 c -4.434,1.196 -5.534,4.096 -5.364,14.143 0.164,9.66 1.795,12.065 8.203,12.101 5.322,0.03 8.032,-2.678 8.032,-8.024 V 30.09 h -2.828 -2.828 l -0.005,1.415 c -0.011,2.863 -0.638,4.015 -2.184,4.015 -1.95,0 -2.336,-0.877 -2.336,-5.309 v -3.288 h 5.091 5.09 L 84.386,23.699 C 84.377,15.333 80.519,11.768 73.518,13.657 m 18.836,0.107 c -3.169,1.129 -4.98,4.286 -4.365,7.61 0.439,2.377 0.993,3.105 5.169,6.793 3.9,3.445 4.416,4.077 4.445,5.444 0.076,3.648 -4.802,2.306 -5.65,-1.555 -0.078,-0.352 -0.258,-0.597 -0.402,-0.544 -4.188,1.53 -4.258,1.567 -4.109,2.178 2.214,9.084 16.33,8.079 15.673,-1.116 -0.154,-2.141 -0.949,-3.475 -3.56,-5.976 -6.236,-5.971 -6.116,-5.836 -6.116,-6.882 0,-3.294 3.73,-2.635 4.944,0.873 l 0.373,1.078 1.973,-0.807 c 2.26,-0.924 2.232,-0.841 1.089,-3.326 -1.613,-3.504 -5.672,-5.121 -9.464,-3.77 m 18.074,-0.045 c -3.016,1.056 -4.546,3.212 -4.546,6.405 0,3.02 0.695,4.074 5.413,8.205 4.025,3.526 4.764,4.657 4.096,6.271 -0.927,2.238 -4.177,1.09 -5.251,-1.856 -0.264,-0.725 -0.592,-1.276 -0.729,-1.226 -4.832,1.801 -4.512,1.456 -3.432,3.709 3.367,7.026 14.418,6.14 15.008,-1.204 0.278,-3.464 -0.494,-4.779 -5.492,-9.351 -4.274,-3.909 -4.928,-5.009 -3.738,-6.286 1.59,-1.707 4.721,0.241 4.754,2.956 0.003,0.229 0.088,0.381 0.189,0.34 3.947,-1.616 3.933,-1.607 3.791,-2.316 -0.896,-4.479 -5.7,-7.174 -10.063,-5.647 m 54.218,-0.124 c -2.898,0.682 -4.775,2.9 -5.374,6.348 -0.333,1.92 -0.183,13.527 0.19,14.675 2.331,7.181 13.456,7.324 15.69,0.202 0.651,-2.075 0.798,-12.895 0.211,-15.541 -1.01,-4.556 -5.469,-6.921 -10.717,-5.684 m 24.877,0.305 c -0.723,0.297 -1.792,0.913 -2.376,1.368 l -1.061,0.829 -0.068,-1.148 -0.069,-1.148 h -3.042 -3.043 v 12.896 12.896 h 3.052 3.052 l 0.059,-10.344 0.059,-10.343 0.905,-0.518 c 1.255,-0.719 2.81,-0.64 3.215,0.164 0.217,0.43 0.286,3.03 0.288,10.803 l 0.004,10.238 h 3.054 3.054 V 28.661 c 0,-11.93 -0.052,-12.498 -1.296,-13.975 -1.215,-1.444 -3.449,-1.748 -5.787,-0.786 m 36.723,-0.254 c -0.778,0.248 -2.584,1.879 -3.554,3.209 l -0.495,0.679 -0.012,-1.867 -0.013,-1.866 h -3.054 -3.055 v 12.896 12.896 h 3.055 3.054 V 30.65 21.708 l 0.998,-0.998 c 1.391,-1.391 3.395,-1.81 5.253,-1.097 0.254,0.097 0.31,-0.461 0.31,-3.073 v -3.192 l -0.848,0.024 c -0.467,0.012 -1.204,0.136 -1.639,0.274 m 10.304,0.064 c -2.481,0.792 -4.04,2.474 -4.756,5.133 -0.591,2.191 -0.415,14.926 0.228,16.564 2.3,5.858 12.3,6.229 14.965,0.555 1.197,-2.547 1.431,-15.142 0.333,-17.908 -1.513,-3.813 -6.338,-5.759 -10.77,-4.344 m 82.701,0.009 c -3.015,1.056 -4.545,3.212 -4.545,6.405 0,3.02 0.695,4.074 5.412,8.205 4.026,3.526 4.765,4.657 4.097,6.271 -0.928,2.238 -4.177,1.09 -5.251,-1.856 -0.264,-0.725 -0.592,-1.276 -0.729,-1.226 -4.832,1.801 -4.513,1.456 -3.433,3.709 3.367,7.026 14.419,6.14 15.008,-1.204 0.278,-3.464 -0.494,-4.779 -5.492,-9.351 -4.273,-3.909 -4.927,-5.009 -3.737,-6.286 1.59,-1.707 4.721,0.241 4.753,2.956 0.003,0.229 0.088,0.381 0.19,0.34 3.947,-1.616 3.932,-1.607 3.79,-2.316 -0.895,-4.479 -5.699,-7.174 -10.063,-5.647 m 33.661,-0.029 c -2.552,0.815 -4.089,2.56 -4.841,5.493 -0.634,2.476 -0.392,14.41 0.329,16.217 1.379,3.457 5.038,5.175 9.439,4.432 3.98,-0.671 5.77,-2.943 6.114,-7.762 l 0.142,-1.98 h -2.953 -2.954 l -0.078,2.132 c -0.096,2.61 -0.537,3.298 -2.115,3.298 -1.864,0 -2.349,-1.194 -2.365,-5.825 l -0.01,-2.772 h 5.236 5.235 l -0.124,-3.563 c -0.194,-5.593 -1.146,-7.844 -3.897,-9.218 -1.645,-0.821 -5.282,-1.051 -7.158,-0.452 m 24.915,-0.13 c -0.888,0.27 -2.07,0.92 -2.997,1.648 l -0.848,0.667 v -1.037 -1.037 h -2.941 -2.941 v 12.896 12.896 h 2.941 2.941 V 29.221 c 0,-9.596 0.03,-10.399 0.396,-10.72 1.158,-1.016 3.145,-1.406 3.995,-0.784 0.693,0.507 0.793,2.007 0.803,12.091 l 0.01,9.785 h 2.828 2.828 V 29.221 c 0,-9.596 0.029,-10.399 0.396,-10.72 1.28,-1.123 3.323,-1.433 4.129,-0.628 0.439,0.44 0.452,0.754 0.452,11.086 v 10.634 h 2.949 2.949 L 395.653,28.224 C 395.58,15.436 395.645,15.923 393.796,14.3 c -1.902,-1.671 -5.789,-1.157 -8.36,1.106 l -1.004,0.884 -0.584,-0.997 c -0.978,-1.669 -3.678,-2.446 -6.021,-1.733 m -83.257,0.36 c 0,0.065 1.369,5.385 3.042,11.821 4.421,17.01 4.403,15.987 0.295,16.467 l -1.301,0.152 v 2.123 2.123 h 1.46 c 3.889,0 6.647,-1.47 7.83,-4.174 0.319,-0.728 6.552,-27.821 6.548,-28.461 0,-0.094 -1.305,-0.17 -2.899,-0.17 h -2.899 l -1.304,7.749 c -0.717,4.262 -1.374,8.036 -1.46,8.388 -0.115,0.465 -0.546,-1.343 -1.592,-6.675 -0.79,-4.022 -1.534,-7.796 -1.655,-8.387 l -0.22,-1.075 h -2.922 c -1.608,0 -2.923,0.053 -2.923,0.119 m -125.746,4.117 c 0.973,0.858 1.278,15.042 0.359,16.721 -0.831,1.516 -3.025,1.358 -3.704,-0.267 -0.527,-1.26 -0.462,-14.637 0.076,-15.71 0.664,-1.324 2.212,-1.676 3.269,-0.744 m 71.588,-0.386 c 1.302,0.454 1.324,0.584 1.4,8.367 0.089,9.058 -0.054,9.729 -2.077,9.729 -2.191,0 -2.276,-0.303 -2.363,-8.318 -0.097,-8.867 0.059,-9.56 2.244,-9.982 0.074,-0.014 0.433,0.077 0.796,0.204 M 77.714,18.156 c 0.722,0.623 1.007,1.767 1.014,4.073 l 0.005,1.753 h -2.288 -2.288 l 0.1,-2.319 c 0.159,-3.659 1.594,-5.114 3.457,-3.507 m 279.183,-0.284 c 0.895,0.34 1.248,1.46 1.248,3.962 v 2.164 l -2.206,-0.064 -2.206,-0.065 0.039,-2.196 c 0.062,-3.408 1.037,-4.595 3.125,-3.801"
         id="path0-6"
         inkscape:connector-curvature="0"
         style="fill:#000000;fill-rule:evenodd;stroke:none" />
    </g>
    <g
       id="g12"
       transform="matrix(0.17330551,0,0,0.17330551,123.56452,75.170867)">
      <path
         sodipodi:nodetypes="cccccccccccccccccc"
         inkscape:connector-curvature="0"
         id="path10"
         d="M 690.479,363.13 694.391,195 c -6.063,-6.062 -36.756,48.483 -53.177,83.674 -16.422,35.19 -25.807,55.522 -25.807,55.522 0,0 -27.43859,-25.44343 -111.044,-20.332 l 4.693,-190.027 c 0,0 -34.61873,43.19129 -42.43573,58.92429 C 309.08357,462.76156 261.13154,571.22535 212.22124,702.91003 248.3515,890.76125 434.66729,936.71074 606.22292,937.60214 L 653.04003,647.53305 965.87532,582.483 c 0,0 29.3583,-34.35997 44.08008,-77.10346 z m -86.801,72.336 c -23.851,-10.948 -16.03,-38.709 -16.03,-38.709 0,0 16.788,-0.39 32.427,2.346 15.639,2.737 34.058,16.518 33.65,19.55 -5.084,7.039 -26.199,27.761 -50.047,16.813 z" />
    </g>
  </g>
</svg>
